<svg width="32" height="32" viewBox="0 0 32 32" fill="none" xmlns="http://www.w3.org/2000/svg">
<path d="M2.35934 15.1407L7.26852 10.1519C7.38174 10.0328 7.51716 9.9378 7.6669 9.87243C7.81663 9.80707 7.97768 9.77266 8.14064 9.77122C8.3036 9.76978 8.46521 9.80134 8.61604 9.86405C8.76687 9.92676 8.9039 10.0194 9.01913 10.1365C9.13437 10.2536 9.2255 10.3928 9.28721 10.5461C9.34892 10.6994 9.37997 10.8636 9.37855 11.0292C9.37714 11.1948 9.34328 11.3585 9.27896 11.5106C9.21464 11.6628 9.12114 11.8004 9.00392 11.9155L4.96243 16.0225L9.00392 20.1295C9.12114 20.2445 9.21464 20.3821 9.27896 20.5343C9.34328 20.6865 9.37714 20.8501 9.37855 21.0157C9.37997 21.1813 9.34892 21.3456 9.28721 21.4988C9.2255 21.6521 9.13437 21.7914 9.01913 21.9085C8.9039 22.0256 8.76687 22.1182 8.61604 22.1809C8.46521 22.2436 8.3036 22.2751 8.14064 22.2737C7.97768 22.2723 7.81663 22.2379 7.6669 22.1725C7.51716 22.1071 7.38174 22.0121 7.26852 21.893L2.35934 16.9042C2.12925 16.6703 2 16.3532 2 16.0225C2 15.6918 2.12925 15.3746 2.35934 15.1407ZM23.7315 10.1519C23.6183 10.0328 23.4828 9.9378 23.3331 9.87243C23.1834 9.80707 23.0223 9.77266 22.8594 9.77122C22.6964 9.76978 22.5348 9.80134 22.384 9.86405C22.2331 9.92676 22.0961 10.0194 21.9809 10.1365C21.8656 10.2536 21.7745 10.3928 21.7128 10.5461C21.6511 10.6994 21.62 10.8636 21.6214 11.0292C21.6229 11.1948 21.6567 11.3585 21.721 11.5106C21.7854 11.6628 21.8789 11.8004 21.9961 11.9155L26.0376 16.0225L21.9961 20.1295C21.8789 20.2445 21.7854 20.3821 21.721 20.5343C21.6567 20.6865 21.6229 20.8501 21.6214 21.0157C21.62 21.1813 21.6511 21.3456 21.7128 21.4988C21.7745 21.6521 21.8656 21.7914 21.9809 21.9085C22.0961 22.0256 22.2331 22.1182 22.384 22.1809C22.5348 22.2436 22.6964 22.2751 22.8594 22.2737C23.0223 22.2723 23.1834 22.2379 23.3331 22.1725C23.4828 22.1071 23.6183 22.0121 23.7315 21.893L28.6407 16.9042C28.8707 16.6703 29 16.3532 29 16.0225C29 15.6918 28.8707 15.3746 28.6407 15.1407L23.7315 10.1519ZM16.7752 6.95039L11.866 24.4111C11.7766 24.729 11.8151 25.0699 11.973 25.3589C12.1308 25.648 12.3952 25.8615 12.7079 25.9526C12.8179 25.9835 12.9313 25.9994 13.0454 26C13.3121 25.9998 13.5715 25.9113 13.7843 25.7479C13.9971 25.5846 14.1518 25.3552 14.2248 25.0945L19.134 7.63385C19.1852 7.4744 19.2042 7.30609 19.1899 7.13901C19.1756 6.97193 19.1282 6.80949 19.0507 6.66142C18.9732 6.51336 18.8671 6.3827 18.7387 6.27726C18.6104 6.17183 18.4624 6.09379 18.3037 6.0478C18.145 6.00181 17.9788 5.98883 17.815 6.00962C17.6513 6.03042 17.4933 6.08457 17.3506 6.16883C17.2079 6.25309 17.0834 6.36574 16.9845 6.50003C16.8856 6.63431 16.8144 6.78749 16.7752 6.95039Z" fill="white"/>
</svg>
