<svg
    width="32"
    height="32"
    viewBox="0 0 32 32"
    fill="none"
    xmlns="http://www.w3.org/2000/svg"
>
    <path
        d="M15.992 5.22H16C16.9522 5.21974 17.895 5.40708 18.7748 5.77134C19.6545 6.13559 20.4538 6.66961 21.1271 7.34289C21.8004 8.01617 22.3344 8.81551 22.6987 9.69523C23.0629 10.575 23.2503 11.5178 23.25 12.47C23.25 14.28 22.565 15.932 21.465 17.205C21.434 17.2415 21.4084 17.2822 21.389 17.326L17.629 21.59C17.6214 21.5974 17.6141 21.6051 17.607 21.613L17.529 21.703C17.4971 21.74 17.4708 21.7814 17.451 21.826L17.449 21.83L17.445 21.838C17.4401 21.8508 17.4358 21.8638 17.432 21.877C17.4267 21.8911 17.422 21.9055 17.418 21.92V21.924C17.4146 21.9395 17.4119 21.9552 17.41 21.971V21.973C17.408 21.988 17.579 21.633 17.578 21.648L17.406 21.873L16.02 23.42L14.656 21.875L14.574 21.863C14.574 21.847 14.656 21.999 14.654 21.983C14.6507 21.9497 14.644 21.9169 14.634 21.885V21.883C14.6291 21.8677 14.6234 21.8527 14.617 21.838V21.836C14.6107 21.8213 14.6037 21.807 14.596 21.793V21.791C14.588 21.7769 14.5793 21.7632 14.57 21.75V21.748C14.5603 21.7342 14.55 21.7208 14.539 21.708L14.533 21.701L14.451 21.607C14.4405 21.5955 14.4295 21.5845 14.418 21.574L14.416 21.572L10.966 17.699H10.963C10.945 17.667 10.938 17.641 10.885 17.588C10.2093 16.9184 9.67277 16.1217 9.30635 15.2439C8.93992 14.366 8.75084 13.4243 8.75 12.473C8.74947 10.5516 9.5121 8.70863 10.8702 7.34943C12.2283 5.99022 14.0706 5.22606 15.992 5.225V5.22ZM16 8.939C15.0645 8.94164 14.1681 9.31436 13.5065 9.97577C12.8449 10.6372 12.4719 11.5335 12.469 12.469C12.4716 13.4047 12.8445 14.3013 13.5061 14.9629C14.1677 15.6245 15.0643 15.9974 16 16C16.9357 15.9974 17.8323 15.6245 18.4939 14.9629C19.1555 14.3013 19.5284 13.4047 19.531 12.469C19.5284 11.5333 19.1555 10.6367 18.4939 9.97512C17.8323 9.3135 16.9357 8.94064 16 8.938V8.939ZM16 9.939C17.4 9.939 18.531 11.069 18.531 12.469C18.531 13.869 17.401 15 16 15C15.6676 15.0003 15.3383 14.935 15.0311 14.8079C14.7239 14.6808 14.4448 14.4944 14.2097 14.2593C13.9746 14.0242 13.7882 13.7451 13.6611 13.4379C13.534 13.1307 13.4687 12.8014 13.469 12.469C13.469 11.069 14.599 9.938 16 9.938V9.939ZM13.871 22.497L15.625 24.487V24.489C15.6467 24.5136 15.6709 24.5361 15.697 24.556H15.699C15.7519 24.5964 15.8125 24.6256 15.877 24.642C15.8932 24.6461 15.9095 24.6495 15.926 24.652H15.928C15.9518 24.6554 15.9759 24.6571 16 24.657H16.031C16.0982 24.6572 16.1647 24.6439 16.2265 24.6178C16.2884 24.5917 16.3443 24.5533 16.391 24.505L16.404 24.491L18.186 22.501C19.639 22.67 20.921 22.969 21.76 23.366C22.209 23.579 22.545 23.812 22.748 24.026C22.951 24.241 23.018 24.413 23.018 24.566C23.018 24.754 22.914 24.976 22.604 25.241C22.292 25.508 21.791 25.785 21.15 26.017C19.87 26.481 18.041 26.782 16.02 26.782C13.998 26.782 12.169 26.481 10.889 26.017C10.249 25.785 9.747 25.507 9.436 25.241C9.124 24.975 9.021 24.753 9.021 24.564C9.021 24.41 9.087 24.239 9.291 24.024C9.495 23.81 9.833 23.575 10.283 23.362C11.125 22.964 12.413 22.665 13.871 22.497Z"
        fill="white"></path>
</svg>
