<svg width="256" height="256" viewBox="0 0 256 256" fill="none" xmlns="http://www.w3.org/2000/svg">
<rect width="256" height="256" rx="44" fill="#FAFAFA"/>
<path d="M42.2422 121.95H35C33.8954 121.95 33 122.846 33 123.95V158.5C33 159.605 33.8954 160.5 35 160.5H99.61C107.508 160.5 115.127 156.192 122.254 145.251C122.678 144.601 122.669 143.764 122.248 143.113L118.544 137.382C117.729 136.121 115.865 136.177 115.076 137.455C113.933 139.308 112.844 140.884 111.746 142.239C105.609 149.818 94.6534 150.089 84.9009 150.089H46.2422C45.1376 150.089 44.2422 149.193 44.2422 148.089V123.95C44.2422 122.846 43.3468 121.95 42.2422 121.95Z" fill="#191B1D"/>
<path d="M218.379 95.5H150.481C140.925 95.5 133.899 100.002 133.899 113.227C133.899 128.703 142.892 132.643 150.481 132.643H198.94C203.165 132.643 208.092 132.265 210.785 135.521C214.891 140.484 211.613 149.807 205.286 149.807H150.481C147.762 149.807 145.763 148.059 144.607 146.676C143.893 145.823 142.657 145.455 141.679 145.984L136.515 148.777C135.489 149.332 135.152 150.651 135.812 151.613C140.587 158.575 143.825 160.497 150.481 160.5H198.616L198.852 160.5C204.525 160.501 210.469 160.501 215.388 157.69C220.529 154.753 222.812 149.864 222.993 141.366C223.274 128.141 215.123 122.794 205.568 121.669H151.605C142.611 121.669 142.892 106.474 151.605 106.474H198.828C204.431 106.474 210.29 106.236 214.851 102.98C216.49 101.809 218.112 100.401 219.766 98.7994C221.024 97.5817 220.129 95.5 218.379 95.5Z" fill="#191B1D"/>
<path d="M111.414 114.475L119.421 126.362C119.511 126.495 119.661 126.575 119.821 126.575C122.361 126.575 124.857 125.905 127.056 124.633L128.862 123.588C129.229 123.376 129.344 122.9 129.114 122.543L122.094 111.662C117.754 104.539 113.923 100.992 107.701 98.2912C103.382 96.4163 98.6225 95.9039 93.915 95.9039H34.2852C33.8858 95.9039 33.5621 96.228 33.5621 96.6278V97.7539C33.5621 100.257 33.586 103.01 35.2429 104.884C36.9658 106.833 39.9468 106.878 42.5461 106.878H92.9575C98.2916 106.878 104.091 107.089 108.09 110.623C109.219 111.62 110.268 112.852 111.414 114.475Z" fill="#191B1D"/>
<path d="M121.251 127.744C120.903 127.744 120.694 128.132 120.885 128.424L130.61 143.557C130.944 144.065 131.62 144.216 132.137 143.898L138.94 139.724C139.478 139.394 139.639 138.685 139.297 138.154L130.688 124.808C130.471 124.472 130.029 124.366 129.683 124.566L127.515 125.82C125.516 126.976 123.56 127.744 121.251 127.744Z" fill="#0C59FC"/>
</svg>
