<svg width="400" height="400" viewBox="0 0 400 400" fill="none" xmlns="http://www.w3.org/2000/svg">
<g clip-path="url(#clip0_38_2)">
<path d="M230.8 0C301.295 0 336.543 0 361.252 17.9524C369.232 23.7503 376.25 30.7681 382.048 38.7482C400 63.4576 400 98.705 400 169.2V230.8C400 301.295 400 336.543 382.048 361.252C376.25 369.232 369.232 376.25 361.252 382.048C336.542 400 301.295 400 230.8 400H169.2C98.705 400 63.4575 400 38.7482 382.048C30.7681 376.25 23.7503 369.232 17.9524 361.252C0 336.542 0 301.295 0 230.8L0 169.2C0 98.705 0 63.4575 17.9524 38.7482C23.7503 30.7681 30.7681 23.7503 38.7482 17.9524C63.4576 0 98.705 0 169.2 0L230.8 0Z" fill="white"/>
<path d="M71.5135 190.784L119.514 137.279C120.621 136.002 121.946 134.983 123.41 134.282C124.874 133.581 126.448 133.212 128.042 133.196C129.635 133.181 131.215 133.519 132.69 134.192C134.165 134.865 135.505 135.858 136.632 137.114C137.758 138.37 138.649 139.863 139.253 141.507C139.856 143.151 140.16 144.912 140.146 146.688C140.132 148.464 139.801 150.219 139.172 151.851C138.543 153.483 137.629 154.959 136.483 156.193L96.966 200.241L136.483 244.288C137.629 245.523 138.543 246.999 139.172 248.63C139.801 250.262 140.132 252.018 140.146 253.793C140.16 255.57 139.856 257.331 139.253 258.975C138.649 260.619 137.758 262.113 136.632 263.368C135.505 264.624 134.165 265.617 132.69 266.29C131.215 266.963 129.635 267.301 128.042 267.285C126.448 267.27 124.874 266.901 123.41 266.2C121.946 265.499 120.621 264.48 119.514 263.202L71.5135 209.698C69.2638 207.189 68 203.788 68 200.241C68 196.694 69.2638 193.293 71.5135 190.784ZM280.485 137.279C279.378 136.002 278.054 134.983 276.591 134.282C275.126 133.581 273.551 133.212 271.958 133.196C270.365 133.181 268.784 133.519 267.31 134.192C265.835 134.865 264.495 135.858 263.368 137.114C262.242 138.37 261.35 139.863 260.747 141.507C260.144 143.151 259.841 144.912 259.854 146.688C259.868 148.464 260.199 150.219 260.828 151.851C261.457 153.483 262.371 154.959 263.518 156.193L303.034 200.241L263.518 244.288C262.371 245.523 261.457 246.999 260.828 248.63C260.199 250.262 259.868 252.018 259.854 253.793C259.841 255.57 260.144 257.331 260.747 258.975C261.35 260.619 262.242 262.113 263.368 263.368C264.495 264.624 265.835 265.617 267.31 266.29C268.784 266.963 270.365 267.301 271.958 267.285C273.551 267.27 275.126 266.901 276.591 266.2C278.054 265.499 279.378 264.48 280.485 263.202L328.486 209.698C330.736 207.189 332 203.788 332 200.241C332 196.694 330.736 193.293 328.486 190.784L280.485 137.279ZM212.468 102.943L164.467 290.209C163.594 293.618 163.97 297.274 165.513 300.374C167.057 303.475 169.642 305.765 172.699 306.742C173.775 307.073 174.885 307.243 176 307.25C178.608 307.248 181.144 306.299 183.224 304.546C185.305 302.794 186.817 300.335 187.532 297.539L235.533 110.273C236.033 108.563 236.218 106.758 236.079 104.966C235.939 103.174 235.476 101.432 234.718 99.8438C233.96 98.2558 232.922 96.8544 231.668 95.7236C230.413 94.5929 228.966 93.7558 227.414 93.2626C225.862 92.7695 224.237 92.6302 222.636 92.8532C221.034 93.0763 219.49 93.657 218.095 94.5607C216.7 95.4644 215.482 96.6725 214.515 98.1127C213.548 99.553 212.853 101.196 212.468 102.943Z" fill="#16191D"/>
</g>
<defs>
<clipPath id="clip0_38_2">
<rect width="400" height="400" rx="91" fill="white"/>
</clipPath>
</defs>
</svg>
