<svg width="400" height="400" viewBox="0 0 400 400" fill="none" xmlns="http://www.w3.org/2000/svg">
<g clip-path="url(#clip0_134_9)">
<path d="M230.8 0C301.295 0 336.543 0 361.252 17.9524C369.232 23.7503 376.25 30.7681 382.048 38.7482C400 63.4576 400 98.705 400 169.2V230.8C400 301.295 400 336.543 382.048 361.252C376.25 369.232 369.232 376.25 361.252 382.048C336.542 400 301.295 400 230.8 400H169.2C98.705 400 63.4575 400 38.7482 382.048C30.7681 376.25 23.7503 369.232 17.9524 361.252C0 336.542 0 301.295 0 230.8L0 169.2C0 98.705 0 63.4575 17.9524 38.7482C23.7503 30.7681 30.7681 23.7503 38.7482 17.9524C63.4576 0 98.705 0 169.2 0L230.8 0Z" fill="white"/>
<path d="M322.879 224.118C324.555 240.062 325.099 255.867 324.96 271.704C324.94 274.018 326.29 275.979 327.118 278.043C333.363 293.593 338.015 309.586 340.666 326.15C340.785 326.89 340.859 327.637 340.952 328.381C341.204 330.391 340.462 331.628 338.817 331.94C337.134 332.26 335.758 331.226 335.403 329.237C334.925 326.554 334.602 323.843 334.097 321.165C331.203 305.823 326.515 291.029 320.466 276.661C319.738 274.931 319.317 273.227 319.343 271.328C319.546 256.989 319.041 242.663 317.662 228.397C315.608 207.156 311.67 186.278 304.397 166.146C301.592 158.379 298.248 150.84 294.565 143.442C293.507 141.316 292.227 140.761 290.076 141.17C282.159 142.676 274.531 145.041 267.194 148.418C257.829 152.729 249.228 158.378 240.388 163.609C233.059 167.946 225.384 171.318 216.886 172.482C215.479 172.675 215.058 173.276 215.146 174.616C215.355 177.811 214.791 180.892 213.322 183.738C212.122 186.064 210.455 188.074 207.598 188.052C204.831 188.031 203.215 186.059 202.056 183.793C200.797 181.331 200.169 178.663 200.243 175.892C200.282 174.431 199.871 173.826 198.307 173.815C187.278 173.735 176.341 172.714 165.48 170.717C161.785 170.038 158.023 170.95 154.299 171.168C145.889 171.661 137.496 172.416 129.092 173.008C120.417 173.619 111.738 174.175 103.06 174.73C101.679 174.818 100.891 175.342 100.466 176.785C95.6131 193.271 91.4635 209.924 88.6154 226.885C86.288 240.745 84.5819 254.677 84.019 268.733C83.9678 270.011 83.5304 271.109 82.869 272.175C74.038 286.409 69.046 302.043 66.1452 318.438C65.5277 321.927 65.002 325.425 64.7437 328.968C64.5914 331.057 63.1108 332.222 61.3726 331.965C59.6815 331.714 58.8033 330.347 59.0373 328.28C60.6313 314.195 63.6579 300.455 68.9651 287.278C71.1838 281.77 73.5683 276.326 76.776 271.313C77.9322 269.506 78.4 267.615 78.515 265.542C80.0499 237.852 85.1408 210.777 92.5099 184.097C93.286 181.287 95.5089 175.379 94.9757 175.379C91.2276 174.992 91.5861 172.319 91.5252 169.822C91.1632 154.983 92.4466 140.374 97.7718 126.373C104.392 108.969 116.64 97.0154 133.477 89.5629C136.718 88.1285 140.033 86.8995 143.433 85.9243C144.773 85.5402 145.61 84.8401 146.266 83.571C148.834 78.6047 152.105 74.1987 156.893 71.1261C164.193 66.442 171.601 67.0269 178.023 72.8468C178.823 73.5724 181.109 75.7985 182.169 76.1048C183.19 76.5129 193.688 76.0647 199.925 76.1048C200.89 76.1048 201.492 76.1715 202.368 76.1521C213.945 75.896 225.467 76.4445 236.876 78.5717C239.345 79.032 241.818 79.5122 244.243 80.157C245.723 80.5506 246.703 80.2963 247.823 79.1645C251.732 75.2147 256.262 72.3578 261.914 71.5326C268.901 70.5124 275.257 73.6189 278.691 79.8061C281.582 85.0153 281.923 90.586 281.018 96.2906C280.732 98.0935 281.063 99.3191 282.342 100.663C289.204 107.873 294.185 116.288 297.472 125.673C298.143 127.591 299.173 128.24 301.031 128.61C308.461 130.092 315.761 132.065 322.137 136.396C329.48 141.383 334.338 148.362 337.507 156.567C338.982 160.385 340.201 164.263 339.776 168.498C339.226 173.987 336.053 177.104 331.049 178.604C326.792 179.88 322.393 180.307 317.964 180.445C315.066 180.535 314.866 180.741 315.586 183.538C319.008 196.823 321.304 210.309 322.879 224.118ZM287.587 117.48C284.784 112.367 281.399 107.69 277.249 103.587C268.69 95.1273 258.287 89.9769 246.882 86.7021C228.428 81.4033 209.582 81.2887 190.649 82.6774C189.264 82.7791 187.525 82.7113 185.869 82.846C184.227 82.9796 183.917 84.3233 184.15 85.9542C185.285 93.9182 184.128 101.596 181.194 109.021C178.766 115.167 174.936 117.79 168.334 117.718C160.164 117.629 152.726 115.14 145.942 110.558C141.928 107.848 140.393 104.223 141.274 99.4651C141.673 97.3105 142.845 92.7393 142.202 92.7935C140.191 92.9633 138.749 93.7459 137.267 94.3635C121.905 100.765 110.359 111.147 103.854 126.749C98.3405 139.973 97.0147 153.891 97.1068 168.042C97.116 169.457 97.8634 169.478 98.9767 169.396C109.752 168.606 120.531 167.862 131.309 167.107C141.408 166.398 151.508 165.691 161.608 164.985C162.594 164.916 163.429 164.588 164.121 163.82C170.402 156.851 178.32 152.202 186.584 148.112C201.286 140.835 216.787 135.824 232.712 132.062C249.518 128.091 266.509 125.83 283.816 126.555C286.436 126.665 289.051 126.899 291.867 127.089C292.909 127.089 289.334 120.662 287.587 117.48ZM287.27 131.764C275.297 131.243 263.356 131.559 251.503 133.457C238.676 135.51 226.064 138.496 213.736 142.631C201.266 146.812 189.108 151.706 177.973 158.84C175.892 160.174 173.831 161.557 171.95 163.228C170.567 164.456 170.938 166.367 172.767 166.643C184.776 168.46 196.828 168.808 208.944 167.957C218.25 167.304 226.989 164.946 235.091 160.246C244.5 154.787 253.502 148.616 263.415 144.036C273.621 139.321 284.176 136.023 295.496 135.434C298.392 135.283 301.278 135.109 304.179 135.165C304.669 135.175 304.765 134.671 304.296 134.531C298.861 132.904 293.225 132.53 287.27 131.764ZM163.366 111.496C165.307 111.941 167.28 111.864 169.249 111.86C172.366 111.855 174.55 110.464 175.738 107.527C178.72 100.152 179.867 92.5637 177.979 84.7459C175.451 74.2729 166.325 70.6048 158.669 77.1539C151.285 83.4709 147.746 91.8913 146.9 101.517C146.745 103.282 147.47 104.461 148.862 105.473C153.127 108.572 157.876 110.459 163.366 111.496ZM311.162 168.422C311.72 170.104 312.289 171.783 312.833 173.47C313.137 174.411 313.65 174.988 314.738 174.936C319.627 174.703 324.529 174.548 329.265 173.134C333.261 171.94 334.667 170.177 334.13 166.081C332.966 157.223 328.933 149.809 322.211 143.91C321.426 143.221 320.472 142.892 319.459 142.647C313.752 141.267 307.977 140.473 302.099 140.555C300.519 140.577 300.202 142.121 300.895 143.542C304.778 151.499 308.223 159.71 311.162 168.422ZM270.248 78.3282C261.436 73.2379 256.664 77.5003 253.236 82.6335C252.371 83.929 275.63 95.9618 275.63 94.4293C275.925 88.2467 276.291 82.3588 270.248 78.3282Z" fill="#16191D"/>
<path d="M296.33 248.123C292.798 254.855 288.296 260.617 282.632 265.463C281.327 266.579 280.062 267.074 278.714 265.66C277.664 264.559 277.939 263.146 279.496 261.809C290.955 251.966 296.434 239.051 298.62 224.433C299.838 216.291 299.462 208.253 297.033 200.359C296.167 197.547 294.975 194.864 293.439 192.352C289.724 186.276 284.035 183.417 277.207 182.718C268.963 181.874 260.696 181.263 252.441 180.533C250.97 180.403 251.18 178.815 252.648 178.649C255.926 178.278 259.581 178.196 260.965 177.938C261.403 177.856 261.436 177.472 261.244 177.07C260.528 175.565 258.719 171.588 258.427 169.204C257.894 164.857 258.63 160.763 260.97 157.049C263.34 153.287 267.817 153.088 270.186 156.838C274.03 162.922 273.947 169.33 270.961 175.775C269.745 177.832 269.791 177.472 269.983 177.511C271.969 177.918 273.768 177.865 275.605 177.934C285.06 178.287 292.73 181.863 297.837 190.167C300.038 193.747 301.498 197.633 302.504 201.687C305.303 212.972 304.491 224.143 301.351 235.232C300.102 239.643 298.496 243.91 296.33 248.123Z" fill="#16191D"/>
<path d="M244.029 200.029C242.852 197.137 243.476 194.614 245.821 192.574C249.178 189.652 253.279 188.456 257.515 187.638C263.398 186.502 269.274 186.438 275.05 188.223C278.121 189.172 281.102 190.518 281.455 194.259C281.802 197.941 279.279 199.978 276.438 201.523C270.54 204.73 264.155 205.666 257.524 205.337C253.962 205.161 250.502 204.632 247.297 202.934C246.011 202.252 244.851 201.457 244.029 200.029Z" fill="#16191D"/>
</g>
<defs>
<clipPath id="clip0_134_9">
<rect width="400" height="400" rx="91" fill="white"/>
</clipPath>
</defs>
</svg>
