<svg width="32" height="32" viewBox="0 0 32 32" fill="none" xmlns="http://www.w3.org/2000/svg">
<path d="M0.42588 14.8829L6.24417 8.39751C6.37835 8.24265 6.53886 8.11914 6.71632 8.03416C6.89379 7.94919 7.08466 7.90446 7.27779 7.90259C7.47093 7.90072 7.66247 7.94174 7.84123 8.02327C8.01999 8.10479 8.1824 8.22518 8.31897 8.37741C8.45555 8.52964 8.56355 8.71067 8.63669 8.90993C8.70983 9.10919 8.74663 9.32269 8.74495 9.53797C8.74327 9.75325 8.70315 9.966 8.62691 10.1638C8.55068 10.3616 8.43987 10.5405 8.30094 10.6901L3.51103 16.0292L8.30094 21.3683C8.43987 21.5179 8.55068 21.6968 8.62691 21.8946C8.70315 22.0924 8.74327 22.3052 8.74495 22.5204C8.74663 22.7357 8.70983 22.9492 8.63669 23.1485C8.56355 23.3477 8.45555 23.5288 8.31897 23.681C8.1824 23.8332 8.01999 23.9536 7.84123 24.0351C7.66247 24.1167 7.47093 24.1577 7.27779 24.1558C7.08466 24.1539 6.89379 24.1092 6.71632 24.0242C6.53886 23.9393 6.37835 23.8158 6.24417 23.6609L0.42588 17.1755C0.153189 16.8714 0 16.4591 0 16.0292C0 15.5993 0.153189 15.187 0.42588 14.8829ZM25.7558 8.39751C25.6216 8.24265 25.4611 8.11914 25.2837 8.03416C25.1062 7.94919 24.9153 7.90446 24.7222 7.90259C24.5291 7.90072 24.3375 7.94174 24.1588 8.02327C23.98 8.10479 23.8176 8.22518 23.681 8.37741C23.5445 8.52964 23.4364 8.71067 23.3633 8.90993C23.2902 9.10919 23.2534 9.32269 23.255 9.53797C23.2567 9.75325 23.2969 9.966 23.3731 10.1638C23.4493 10.3616 23.5601 10.5405 23.6991 10.6901L28.489 16.0292L23.6991 21.3683C23.5601 21.5179 23.4493 21.6968 23.3731 21.8946C23.2969 22.0924 23.2567 22.3052 23.255 22.5204C23.2534 22.7357 23.2902 22.9492 23.3633 23.1485C23.4364 23.3477 23.5445 23.5288 23.681 23.681C23.8176 23.8332 23.98 23.9536 24.1588 24.0351C24.3375 24.1167 24.5291 24.1577 24.7222 24.1558C24.9153 24.1539 25.1062 24.1092 25.2837 24.0242C25.4611 23.9393 25.6216 23.8158 25.7558 23.6609L31.5741 17.1755C31.8468 16.8714 32 16.4591 32 16.0292C32 15.5993 31.8468 15.187 31.5741 14.8829L25.7558 8.39751ZM17.5113 4.2355L11.693 26.9344C11.5871 27.3476 11.6327 27.7908 11.8198 28.1666C12.0069 28.5424 12.3202 28.82 12.6908 28.9384C12.8212 28.9785 12.9557 28.9992 13.0909 29C13.407 28.9997 13.7144 28.8847 13.9666 28.6723C14.2188 28.4599 14.4021 28.1618 14.4887 27.8229L20.307 5.124C20.3676 4.91671 20.3901 4.69792 20.3732 4.48071C20.3562 4.2635 20.3001 4.05234 20.2082 3.85985C20.1164 3.66737 19.9906 3.49751 19.8385 3.36044C19.6864 3.22338 19.511 3.12192 19.3229 3.06214C19.1348 3.00236 18.9378 2.98548 18.7437 3.01251C18.5496 3.03955 18.3624 3.10994 18.1933 3.21948C18.0242 3.32902 17.8766 3.47546 17.7594 3.65003C17.6422 3.82461 17.5579 4.02374 17.5113 4.2355Z" fill="white"/>
</svg>
