<svg width="800" height="800" viewBox="0 0 800 800" fill="none" xmlns="http://www.w3.org/2000/svg">
<rect width="800" height="800" rx="150" fill="white"/>
<path d="M257.909 137H298.364V177.462H257.909V137Z" fill="#141B1B"/>
<path d="M298.364 137H338.818V177.462H298.364V137Z" fill="#141B1B"/>
<path d="M217.455 177.462H257.909V217.923H217.455V177.462Z" fill="#141B1B"/>
<path d="M257.909 177.462H298.364V217.923H257.909V177.462Z" fill="#F2EAF1"/>
<path d="M257.909 177.462H298.364V217.923H257.909V177.462Z" fill="#F2EAF1"/>
<path d="M298.364 177.462H338.818V217.923H298.364V177.462Z" fill="#ABC2BC"/>
<path d="M257.909 217.923H298.364V258.385H257.909V217.923Z" fill="#ABC2BC"/>
<path d="M298.364 217.923H338.818V258.385H298.364V217.923Z" fill="#ABC2BC"/>
<path d="M217.455 217.923H257.909V258.385H217.455V217.923Z" fill="#ABC2BC"/>
<path d="M177 217.923H217.455V258.385H177V217.923Z" fill="#141B1B"/>
<path d="M217.455 258.385H257.909V298.846H217.455V258.385Z" fill="#ABC2BC"/>
<path d="M298.364 258.385H338.818V298.846H298.364V258.385Z" fill="#ABC2BC"/>
<path d="M338.818 258.385H379.273V298.846H338.818V258.385Z" fill="#ABC2BC"/>
<path d="M379.273 258.385H419.727V298.846H379.273V258.385Z" fill="#ABC2BC"/>
<path d="M419.727 258.385H460.182V298.846H419.727V258.385Z" fill="#ABC2BC"/>
<path d="M257.909 258.385H298.364V298.846H257.909V258.385Z" fill="#ABC2BC"/>
<path d="M338.818 177.462H379.273V217.923H338.818V177.462Z" fill="#141B1B"/>
<path d="M379.273 137H419.727V177.462H379.273V137Z" fill="#141B1B"/>
<path d="M419.727 177.462H460.182V217.923H419.727V177.462Z" fill="#141B1B"/>
<path d="M338.818 217.923H379.273V258.385H338.818V217.923Z" fill="#8D977F"/>
<path d="M419.727 217.923H460.182V258.385H419.727V217.923Z" fill="#8D977F"/>
<path d="M379.273 177.462H419.727V217.923H379.273V177.462Z" fill="#F2EAF1"/>
<path d="M379.273 217.923H419.727V258.385H379.273V217.923Z" fill="#F2EAF1"/>
<path d="M379.273 582.077H419.727V622.538H379.273V582.077Z" fill="#F2EAF1"/>
<path d="M177 258.385H217.455V298.846H177V258.385Z" fill="#141B1B"/>
<path d="M541.091 137H500.636V177.462H541.091V137Z" fill="#141B1B"/>
<path d="M500.636 137H460.182V177.462H500.636V137Z" fill="#141B1B"/>
<path d="M581.545 177.462H541.091V217.923H581.545V177.462Z" fill="#141B1B"/>
<path d="M541.091 177.462H500.636V217.923H541.091V177.462Z" fill="#F2EAF1"/>
<path d="M541.091 177.462H500.636V217.923H541.091V177.462Z" fill="#ABC2BC"/>
<path d="M500.636 177.462H460.182V217.923H500.636V177.462Z" fill="#ABC2BC"/>
<path d="M541.091 217.923H500.636V258.385H541.091V217.923Z" fill="#ABC2BC"/>
<path d="M500.636 217.923H460.182V258.385H500.636V217.923Z" fill="#ABC2BC"/>
<path d="M581.545 217.923H541.091V258.385H581.545V217.923Z" fill="#ABC2BC"/>
<path d="M622 217.923H581.545V258.385H622V217.923Z" fill="#141B1B"/>
<path d="M257.909 420.231H298.364V379.769H257.909V420.231Z" fill="#141B1B"/>
<path d="M298.364 420.231H338.818V379.769H298.364V420.231Z" fill="#141B1B"/>
<path d="M217.455 379.769H257.909V339.308H217.455V379.769Z" fill="#141B1B"/>
<path d="M257.909 379.769H298.364V339.308H257.909V379.769Z" fill="#F2EAF1"/>
<path d="M257.909 379.769H298.364V339.308H257.909V379.769Z" fill="#ABC2BC"/>
<path d="M298.364 379.769H338.818V339.308H298.364V379.769Z" fill="#ABC2BC"/>
<path d="M257.909 339.308H298.364V298.846H257.909V339.308Z" fill="#ABC2BC"/>
<path d="M298.364 339.308H338.818V298.846H298.364V339.308Z" fill="#ABC2BC"/>
<path d="M217.455 339.308H257.909V298.846H217.455V339.308Z" fill="#ABC2BC"/>
<path d="M177 339.308H217.455V298.846H177V339.308Z" fill="#141B1B"/>
<path d="M338.818 379.769H379.273V339.308H338.818V379.769Z" fill="#141B1B"/>
<path d="M338.818 420.231H379.273V379.769H338.818V420.231Z" fill="#141B1B"/>
<path d="M338.818 460.692H379.273V420.231H338.818V460.692Z" fill="#141B1B"/>
<path d="M338.818 501.154H379.273V460.692H338.818V501.154Z" fill="#141B1B"/>
<path d="M338.818 541.615H379.273V501.154H338.818V541.615Z" fill="#141B1B"/>
<path d="M338.818 582.077H379.273V541.615H338.818V582.077Z" fill="#141B1B"/>
<path d="M338.818 622.538H379.273V582.077H338.818V622.538Z" fill="#141B1B"/>
<path d="M338.818 663H379.273V622.538H338.818V663Z" fill="#141B1B"/>
<path d="M419.727 460.692H460.182V420.231H419.727V460.692Z" fill="#141B1B"/>
<path d="M419.727 501.154H460.182V460.692H419.727V501.154Z" fill="#141B1B"/>
<path d="M419.727 541.615H460.182V501.154H419.727V541.615Z" fill="#141B1B"/>
<path d="M419.727 582.077H460.182V541.615H419.727V582.077Z" fill="#141B1B"/>
<path d="M419.727 622.538H460.182V582.077H419.727V622.538Z" fill="#141B1B"/>
<path d="M419.727 663H460.182V622.538H419.727V663Z" fill="#141B1B"/>
<path d="M379.273 663H419.727V622.538H379.273V663Z" fill="#141B1B"/>
<path d="M379.273 420.231H419.727V379.769H379.273V420.231Z" fill="#ABC2BC"/>
<path d="M379.273 460.692H419.727V420.231H379.273V460.692Z" fill="#ABC2BC"/>
<path d="M379.273 501.154H419.727V460.692H379.273V501.154Z" fill="#F2EAF1"/>
<path d="M419.727 379.769H460.182V339.308H419.727V379.769Z" fill="#141B1B"/>
<path d="M419.727 420.231H460.182V379.769H419.727V420.231Z" fill="#141B1B"/>
<path d="M338.818 339.308H379.273V298.846H338.818V339.308Z" fill="#8D977F"/>
<path d="M379.273 541.615H419.727V501.154H379.273V541.615Z" fill="#8D977F"/>
<path d="M379.273 582.077H419.727V541.615H379.273V582.077Z" fill="#8D977F"/>
<path d="M419.727 339.308H460.182V298.846H419.727V339.308Z" fill="#8D977F"/>
<path d="M379.273 379.769H419.727V339.308H379.273V379.769Z" fill="#ABC2BC"/>
<path d="M379.273 339.308H419.727V298.846H379.273V339.308Z" fill="#ABC2BC"/>
<path d="M541.091 420.231H500.636V379.769H541.091V420.231Z" fill="#141B1B"/>
<path d="M500.636 420.231H460.182V379.769H500.636V420.231Z" fill="#141B1B"/>
<path d="M581.545 379.769H541.091V339.308H581.545V379.769Z" fill="#141B1B"/>
<path d="M541.091 379.769H500.636V339.308H541.091V379.769Z" fill="#F2EAF1"/>
<path d="M541.091 379.769H500.636V339.308H541.091V379.769Z" fill="#ABC2BC"/>
<path d="M500.636 379.769H460.182V339.308H500.636V379.769Z" fill="#ABC2BC"/>
<path d="M541.091 339.308H500.636V298.846H541.091V339.308Z" fill="#ABC2BC"/>
<path d="M500.636 339.308H460.182V298.846H500.636V339.308Z" fill="#ABC2BC"/>
<path d="M581.545 339.308H541.091V298.846H581.545V339.308Z" fill="#ABC2BC"/>
<path d="M622 339.308H581.545V298.846H622V339.308Z" fill="#141B1B"/>
<path d="M581.545 258.385H541.091V298.846H581.545V258.385Z" fill="#ABC2BC"/>
<path d="M500.636 258.385H460.182V298.846H500.636V258.385Z" fill="#ABC2BC"/>
<path d="M541.091 258.385H500.636V298.846H541.091V258.385Z" fill="#ABC2BC"/>
<path d="M622 258.385H581.545V298.846H622V258.385Z" fill="#141B1B"/>
</svg>
