<svg width="800" height="800" viewBox="0 0 800 800" fill="none" xmlns="http://www.w3.org/2000/svg">
<g clip-path="url(#clip0_67_27)">
<rect width="800" height="800" rx="150" fill="white"/>
<path d="M421.465 313.592C422.297 315.048 422.297 316.816 421.465 318.272L408.257 343.232L401.497 355.504C391.617 373.184 373.729 384 354.385 384H216.169L211.281 380.984L212.737 380.568C212.737 380.568 215.961 379.424 220.433 376.408L252.049 318.48L249.241 311.304H417.721C419.281 311.304 420.737 312.136 421.465 313.592ZM372.273 327.944C372.481 327.736 372.481 327.32 372.273 327.008C372.169 326.8 371.857 326.696 371.649 326.696H291.361L289.593 329.92L287.409 333.872L278.881 349.472L278.465 350.304L268.481 368.504H334.521C344.297 368.504 353.241 362.992 358.129 354.048L369.569 332.936L372.273 327.944ZM590.366 313.592C591.094 315.048 591.094 316.816 590.366 318.272L554.382 384.104H383.509L391.205 369.96L392.453 367.568L396.821 359.768L444.142 353.216L435.822 368.4L519.022 368.504L540.758 328.672L541.694 326.904L544.19 322.536L545.854 319.416L542.734 311.304H586.518C588.182 311.304 589.534 312.136 590.366 313.592ZM219.846 438.992C223.59 439.616 225.566 443.776 223.798 447.104L209.342 473H40.6544L65.9264 450.64C69.6704 455.008 74.9744 457.504 80.6944 457.504H171.07C172.942 457.504 174.606 456.464 175.438 454.904L176.686 452.928L70.8144 432.128C70.3984 432.128 68.2144 431.608 67.0704 429.424C65.8224 427.24 66.5504 425.056 66.6544 424.744L66.9664 424.016L70.7104 417.256L76.1184 407.48H76.0144L73.2064 400.304H80.0704H123.854H207.886H249.902L214.542 422.768L214.23 422.456C210.59 418.088 205.182 415.592 199.462 415.592H118.654C116.886 415.592 115.222 416.632 114.286 418.192L113.246 420.168L207.782 436.808L219.846 438.992ZM418.282 402.592C419.114 404.048 419.114 405.816 418.282 407.272L409.546 423.392L394.258 451.264L390.202 458.544L382.298 473H338.514L333.522 469.984L334.874 469.568C334.874 469.568 338.202 468.424 342.778 465.304L346.834 457.816L354.114 444.504H272.474L256.874 473H212.986L208.098 469.984L209.554 469.568C209.554 469.568 212.778 468.424 217.25 465.408L248.866 407.48L246.058 400.2H414.538C416.098 400.2 417.554 401.136 418.282 402.592ZM369.09 417.152C369.194 416.944 369.194 416.632 369.09 416.32C368.882 416.112 368.674 415.904 368.362 415.904H288.074L281.002 428.8L362.642 428.904L369.09 417.152ZM553.155 400.304H597.043L557.107 473H513.323L457.995 425.888L432.203 473H388.315L383.427 469.984L384.883 469.568C384.883 469.568 388.107 468.528 392.371 465.616C392.475 465.512 392.579 465.408 392.579 465.408L424.195 407.48L421.387 400.304H471.723L471.931 400.408L527.259 447.624L553.155 400.304ZM706.441 457.504C712.681 457.504 718.817 456.36 724.641 454.28L738.993 449.08L725.889 473H557.201L669.833 415.8H615.961C609.825 415.8 603.793 416.944 597.969 419.024L583.617 424.224L587.361 417.36L588.297 415.696L590.585 411.64L596.825 400.2H596.721H598.905H745.441L750.745 406.648L652.049 457.504H706.441Z" fill="black"/>
</g>
<defs>
<clipPath id="clip0_67_27">
<rect width="800" height="800" rx="150" fill="white"/>
</clipPath>
</defs>
</svg>
