<svg width="800" height="800" viewBox="0 0 800 800" fill="none" xmlns="http://www.w3.org/2000/svg">
<rect width="800" height="800" rx="150" fill="white"/>
<path fill-rule="evenodd" clip-rule="evenodd" d="M273.693 461.526C263.214 472.005 263.214 488.995 273.693 499.474C284.172 509.952 301.162 509.952 311.641 499.474L378.724 432.391C396.614 414.501 396.614 385.499 378.724 367.61L311.641 300.526C301.162 290.047 284.172 290.047 273.693 300.526C263.214 311.005 263.214 327.995 273.693 338.474L335.219 400L273.693 461.526ZM426.833 453.667C412.013 453.667 400 465.68 400 480.5C400 495.32 412.013 507.333 426.833 507.333H507.333C522.153 507.333 534.167 495.32 534.167 480.5C534.167 465.68 522.153 453.667 507.333 453.667H426.833ZM668.333 290.901C668.333 291.487 668.333 292.076 668.333 292.667V509.099C668.336 532.887 668.336 553.382 666.13 569.796C663.764 587.385 658.432 604.247 644.755 617.922C631.081 631.599 614.219 636.93 596.629 639.297C580.215 641.503 559.72 641.503 535.932 641.5H264.068C240.28 641.503 219.784 641.503 203.371 639.297C185.781 636.93 168.921 631.599 155.245 617.922C141.569 604.247 136.236 587.385 133.871 569.796C131.664 553.382 131.665 532.887 131.667 509.099V290.901C131.665 267.113 131.664 246.618 133.871 230.204C136.236 212.615 141.569 195.754 155.245 182.078C168.921 168.402 185.781 163.069 203.371 160.704C219.784 158.498 240.28 158.499 264.067 158.5L534.167 158.5C534.757 158.5 535.347 158.5 535.932 158.5C559.72 158.499 580.215 158.498 596.629 160.704C614.219 163.069 631.081 168.402 644.755 182.078C658.432 195.754 663.764 212.615 666.13 230.204C668.336 246.617 668.336 267.113 668.333 290.901Z" fill="black"/>
</svg>
