<svg width="800" height="800" viewBox="0 0 800 800" fill="none" xmlns="http://www.w3.org/2000/svg">
<rect width="800" height="800" rx="150" fill="white"/>
<g clip-path="url(#clip0_39_87)">
<path d="M392.923 265.713L303.027 182.398L147.397 252.554L143 410.46L384.166 621L656 425.835L651.603 259.134L522.281 178L392.923 265.713Z" fill="#D6481A"/>
<path opacity="0.52" d="M392.923 265.713L384.166 307.407L303.027 182.398L392.923 265.713Z" fill="#F9BEAF"/>
<path d="M392.923 265.713L522.281 178L384.166 307.406L392.923 265.713Z" fill="#AF3312"/>
<path d="M384.166 621C388.562 616.602 605.601 419.22 605.601 419.22L651.639 259.134L656.036 425.8L384.166 621Z" fill="#AF3312"/>
<path d="M147.397 252.554L143 410.46L384.166 621L175.885 397.301L147.397 252.554Z" fill="#AF3312"/>
<path opacity="0.52" d="M520.065 215.295L456.476 285.451L625.296 261.351L520.065 215.295Z" fill="#F9BEAF"/>
</g>
<defs>
<clipPath id="clip0_39_87">
<rect width="513" height="443" fill="white" transform="translate(143 178)"/>
</clipPath>
</defs>
</svg>
