<svg width="800" height="800" viewBox="0 0 800 800" fill="none" xmlns="http://www.w3.org/2000/svg">
<rect width="800" height="800" rx="150" fill="white"/>
<path d="M396.457 655.477C518.619 655.477 617.65 630.914 617.65 600.614C617.65 570.314 518.619 545.75 396.457 545.75C274.295 545.75 175.264 570.314 175.264 600.614C175.264 630.914 274.295 655.477 396.457 655.477Z" fill="#B8CBCD"/>
<path d="M195.33 308.898C192.662 308.898 189.994 308.087 187.675 306.579C181.295 302.403 125.852 264.126 125.852 220.746C125.852 218.194 125.968 215.758 126.084 213.323C112.629 202.303 105.786 184.905 107.177 164.143C107.641 156.487 114.369 150.688 122.024 151.152C129.68 151.616 135.479 158.343 135.015 165.999C134.667 171.218 135.015 175.858 136.175 179.801C143.134 168.666 152.53 161.939 161.693 158.807C176.888 153.704 192.662 158.343 201.825 170.522C211.337 183.165 211.917 197.432 203.565 208.683C193.938 221.558 173.524 227.937 154.038 225.154C158.097 248.352 191.038 275.145 203.101 283.265C209.481 287.556 211.221 296.14 206.929 302.519C204.261 306.695 199.854 308.898 195.33 308.898ZM158.097 197.78C168.42 199.288 178.395 196.04 181.295 192.212C181.527 191.864 182.223 190.936 179.555 187.341C176.772 183.745 172.248 184.673 170.508 185.369C166.101 186.761 161.345 190.704 158.097 197.78Z" fill="#783741"/>
<path d="M659.291 325.949H634.237C628.205 287.904 607.675 253.339 576.938 225.85L581.229 158.923L524.51 190.704C487.625 172.494 444.013 161.939 397.269 161.939C265.272 161.939 158.329 245.684 158.329 349.147C158.329 406.91 191.734 458.642 244.278 492.975L234.999 517.101C224.908 543.431 238.014 572.892 264.344 583.099C290.674 593.19 320.135 580.084 330.343 553.754L339.158 530.788C357.716 534.383 377.203 536.355 397.269 536.355C416.407 536.355 434.966 534.499 452.828 531.252L461.412 553.754C471.503 580.084 501.08 593.19 527.41 583.099C553.74 573.008 566.847 543.431 556.755 517.101L548.056 494.367C573.69 478.012 594.916 457.482 610.111 434.284H659.407C669.614 434.284 677.965 425.933 677.965 415.725V344.507C677.849 334.3 669.614 325.949 659.291 325.949Z" fill="#FFBAB0"/>
<path d="M454.452 182.121C482.29 182.121 509.083 185.021 534.717 190.356C496.093 170.522 449.58 158.923 399.473 158.923C266.2 158.923 158.213 240.928 158.213 342.188C158.213 348.567 158.677 354.947 159.489 361.21C189.878 258.675 310.392 182.121 454.452 182.121Z" fill="white"/>
<path d="M606.863 438.691C543.301 465.137 492.265 474.416 401.793 469.777C277.567 463.397 175.728 392.991 168.072 296.024C161.693 312.842 158.213 330.705 158.213 349.147C158.213 406.91 191.618 458.642 244.162 492.975L234.883 517.101C224.791 543.431 237.898 572.892 264.228 583.099C290.558 593.19 320.019 580.084 330.227 553.754L339.042 530.788C357.6 534.383 377.087 536.355 397.153 536.355C416.291 536.355 434.85 534.499 452.712 531.252L461.295 553.754C471.387 580.084 500.964 593.19 527.294 583.099C553.624 573.008 566.731 543.431 556.639 517.101L547.94 494.367C571.95 479.056 591.9 460.034 606.863 438.691Z" fill="#783741"/>
<path d="M603.615 428.02L659.291 434.168C669.498 434.168 677.849 425.817 677.849 415.609V400.183H617.534C617.534 400.183 612.547 424.773 603.615 428.02Z" fill="#783741"/>
<path d="M325.239 223.878C347.277 216.454 371.635 212.395 397.153 212.395C420.931 212.395 443.549 215.99 464.427 222.37" fill="#FFBAB0"/>
<path d="M325.239 237.796C319.44 237.796 313.988 234.085 312.016 228.285C309.58 220.978 313.524 213.091 320.715 210.655C344.725 202.535 370.475 198.476 397.037 198.476C421.395 198.476 445.405 202.072 468.371 209.031C475.678 211.235 479.854 219.006 477.65 226.429C475.446 233.737 467.675 237.912 460.252 235.709C439.953 229.445 418.611 226.313 397.037 226.313C373.491 226.313 350.757 229.909 329.531 237.101C328.255 237.565 326.747 237.796 325.239 237.796Z" fill="#783741"/>
<path d="M550.26 339.868C561.791 339.868 571.138 330.52 571.138 318.99C571.138 307.459 561.791 298.111 550.26 298.111C538.729 298.111 529.382 307.459 529.382 318.99C529.382 330.52 538.729 339.868 550.26 339.868Z" fill="#783741"/>
<path d="M404.112 429.528C375.927 429.528 358.992 413.406 357.136 411.55L376.855 391.831L376.739 391.715C377.203 392.179 387.41 401.691 404.112 401.691C416.291 401.691 422.671 396.935 422.671 387.772C422.671 379.768 415.479 375.709 395.297 368.285C377.435 361.79 353.077 352.859 353.077 327.457C353.077 302.519 371.751 285.7 399.473 285.7C421.627 285.7 437.866 296.14 439.721 297.299C446.101 301.591 447.841 310.174 443.549 316.554C439.257 322.933 430.674 324.673 424.295 320.497C423.947 320.266 413.16 313.538 399.473 313.538C387.178 313.538 380.914 318.178 380.914 327.457C380.914 333.024 390.426 336.852 404.808 342.188C424.063 349.263 450.508 358.89 450.508 387.772C450.508 408.534 436.126 429.528 404.112 429.528Z" fill="#783741"/>
<path d="M399.473 451.218C396.921 451.218 394.833 449.131 394.833 446.579V270.274C394.833 267.722 396.921 265.634 399.473 265.634C402.025 265.634 404.112 267.722 404.112 270.274V446.579C404.112 449.131 402.025 451.218 399.473 451.218Z" fill="#783741"/>
<path d="M392.513 539.371C387.41 539.371 383.234 535.195 383.234 530.092C383.234 524.988 387.41 520.813 392.513 520.813C428.006 520.813 461.991 514.549 493.541 502.022C498.296 500.166 503.748 502.486 505.604 507.242C507.46 511.997 505.14 517.449 500.384 519.305C466.631 532.644 430.442 539.371 392.513 539.371Z" fill="#783741"/>
<path d="M297.401 520.813C296.358 520.813 295.314 520.697 294.27 520.233C267.36 510.721 243.118 497.615 222.008 481.144C217.948 478.012 217.252 472.097 220.384 468.153C223.516 464.093 229.431 463.397 233.375 466.529C252.861 481.724 275.363 493.903 300.301 502.718C305.173 504.458 307.725 509.677 305.985 514.549C304.825 518.377 301.229 520.813 297.401 520.813Z" fill="#783741"/>
<path d="M509.084 600.382C482.29 600.382 457.932 583.679 448.421 558.741L443.897 546.794C428.238 549.114 412.58 550.274 397.269 550.274C380.798 550.274 364.328 548.998 348.089 546.446L343.334 558.741C333.474 584.027 309.696 600.382 282.671 600.382C274.667 600.382 266.896 598.874 259.357 596.09C225.951 583.099 209.249 545.518 222.008 512.113L227.343 498.194C174.452 460.15 144.41 406.33 144.41 349.147C144.41 294.748 171.204 243.828 219.688 205.783C267.244 168.55 330.343 148.02 397.269 148.02C441.925 148.02 485.537 157.299 524.046 175.046L574.502 146.744C578.91 144.308 584.361 144.424 588.769 147.092C593.06 149.76 595.612 154.632 595.264 159.735L591.437 220.05C619.274 246.612 637.949 278.045 645.836 311.914H659.407C677.153 311.914 691.768 326.413 692 344.275V415.609C692 433.472 677.385 448.087 659.523 448.087H617.418C603.616 467.341 585.753 484.972 564.991 499.586L569.746 511.997C582.621 545.518 565.803 583.099 532.398 595.974C524.858 598.99 517.087 600.382 509.084 600.382ZM452.828 517.333C458.512 517.333 463.731 520.813 465.819 526.264L474.402 548.766C479.854 563.033 493.773 572.544 509.084 572.544C513.607 572.544 518.131 571.732 522.422 570.108C541.561 562.801 551.072 541.227 543.765 522.088L535.065 499.354C532.746 493.207 534.949 486.247 540.633 482.652C564.527 467.457 584.477 448.087 598.512 426.629C601.064 422.685 605.471 420.365 610.111 420.365H659.407C661.959 420.365 664.046 418.277 664.046 415.725V344.623C664.046 341.956 661.843 339.868 659.291 339.868H634.237C627.393 339.868 621.594 334.88 620.434 328.153C614.983 294.168 596.772 262.386 567.659 236.289C564.527 233.389 562.787 229.329 563.019 225.038L565.687 183.629L531.354 202.883C527.294 205.087 522.538 205.203 518.363 203.231C482.174 185.369 440.301 175.858 397.269 175.858C273.159 175.858 172.248 253.571 172.248 349.147C172.248 400.067 201.246 448.203 251.933 481.376C257.385 484.972 259.705 491.931 257.269 498.079L247.99 522.204C240.682 541.227 250.309 562.801 269.332 570.224C273.623 571.848 278.031 572.66 282.555 572.66C297.981 572.66 311.668 563.265 317.236 548.766L326.051 525.8C328.487 519.537 335.098 515.825 341.71 517.101C359.92 520.581 378.595 522.436 397.153 522.436C414.551 522.436 432.414 520.813 450.276 517.565C451.204 517.449 452.016 517.333 452.828 517.333Z" fill="#783741"/>
</svg>
