<svg width="800" height="800" viewBox="0 0 800 800" fill="none" xmlns="http://www.w3.org/2000/svg">
<rect width="800" height="800" rx="150" fill="white"/>
<path d="M497.615 285.273C500.011 284.167 502.687 283.822 505.284 284.285C507.882 284.747 510.275 285.996 512.141 287.86C514.005 289.726 515.253 292.119 515.716 294.717C516.178 297.314 515.834 299.99 514.728 302.385L415.379 527.764C409.634 540.311 390.404 536.128 390.403 522.284V414.524C390.403 413.223 389.887 411.977 388.968 411.058C388.048 410.139 386.801 409.621 385.501 409.621H277.716C263.872 409.621 259.643 390.546 272.224 384.777L497.615 285.273Z" fill="#1082B4" stroke="#1082B4" stroke-width="0.125"/>
<path d="M632 400.001C632 271.916 528.084 168 400.001 168C271.916 168 168 271.916 168 400.001C168 528.084 271.916 632 400.001 632C528.084 632 632 528.084 632 400.001Z" stroke="#1082B4" stroke-width="50" stroke-miterlimit="10"/>
</svg>
